<svg xmlns="http://www.w3.org/2000/svg" xmlns:xlink="http://www.w3.org/1999/xlink" viewBox="0 0 137 83">
    <g>
        <path d="M131.405 47.172c.26 0 .46 0 .65-.066.2 0 .39 0 .521-.065.2-.131.33-.197.39-.328.07-.13.131-.392.131-.654 0-.196 0-.328-.13-.458a.752.752 0 0 0-.322-.327.93.93 0 0 0-.46-.131c-.13 0-.32-.066-.45-.066h-1.37v2.095h1.04zm.46-2.881c.78 0 1.301.131 1.69.459.392.327.522.786.522 1.375 0 .588-.13 1.047-.46 1.309-.322.262-.712.393-1.171.459l1.821 2.88h-1.1l-1.693-2.815h-1.11v2.815h-.98V44.29h2.481zm-4.494 5.107c.19.524.52 1.048.91 1.44.391.459.911.786 1.432 1.048.59.197 1.171.328 1.821.328.65 0 1.242-.131 1.761-.328.582-.262 1.042-.589 1.433-1.048.39-.392.711-.916.971-1.44a6.02 6.02 0 0 0 .33-1.898c0-.656-.131-1.31-.33-1.833-.26-.59-.581-1.114-.971-1.507-.39-.392-.851-.72-1.433-.981-.52-.262-1.11-.393-1.76-.393-.65 0-1.232.131-1.822.393-.52.261-1.04.589-1.431.981-.392.393-.72.917-.911 1.507-.26.523-.39 1.177-.39 1.833 0 .655.13 1.309.39 1.898zm-.91-4.059c.26-.655.65-1.245 1.17-1.768a8.255 8.255 0 0 1 1.753-1.178 5.748 5.748 0 0 1 2.15-.393c.72 0 1.433.131 2.152.393.651.327 1.233.72 1.692 1.178.52.523.911 1.113 1.232 1.768.26.655.39 1.374.39 2.161a6.42 6.42 0 0 1-.39 2.226c-.32.655-.712 1.243-1.232 1.702-.46.524-1.04.916-1.692 1.179a6.228 6.228 0 0 1-2.152.393c-.78 0-1.491-.131-2.15-.393a5.208 5.208 0 0 1-1.753-1.179 4.433 4.433 0 0 1-1.17-1.702c-.332-.72-.461-1.441-.461-2.226 0-.787.13-1.506.46-2.161zM7.011 54.053c1.281-5.37 5.326-6.662 8.157-6.662 3.708 0 7.012 2.038 7.82 6.662H7.012zM15.101 41C6 41 0 48.41 0 56.636 0 65.135 6.404 72 15.168 72c6.81 0 12.27-4.827 13.888-10.06h-7.214c-1.348 2.379-3.64 3.67-6.674 3.67-4.92 0-7.617-4.08-7.955-5.914h22.383c.203-.953.404-2.175.404-3.537C30 48.82 24.54 41 15.101 41zM125.73 54H96.27m-.064 0A16.262 16.262 0 0 0 96 56.59C96 65.116 102.461 72 111.202 72c6.793 0 12.243-4.841 13.856-10.09H117.8c-1.282 2.386-3.568 3.68-6.597 3.68-4.912 0-7.6-4.09-7.933-5.93h22.328c.205-.956.403-2.182.403-3.547 0-.681-.064-1.43-.135-2.113M78.737 65.682c-4.292 0-8.719-3.409-8.719-9.341 0-5.523 4.292-8.932 8.446-8.932 5.246 0 8.584 4.706 8.584 8.864 0 5.795-4.156 9.409-8.311 9.409zm8.516-20.115h-.07C86.368 44.408 83.848 41 77.852 41 70.493 41 63 47.136 63 56.273c0 9.75 7.834 15.819 14.92 15.819 5.927 0 8.582-3.41 9.536-4.705l.138.136c-.41 6.342-4.974 9.068-8.926 9.068-1.089 0-4.018 0-6.744-3.273h-7.97C66.474 79.864 72.128 83 78.124 83 83.642 83 94 79.797 94 65.75V41.955h-6.747v3.613zM5 1h7v38H5z"/>
        <g transform="translate(14)">
            <mask id="b" fill="#fff">
                <path id="a" d="M.713.912h7.223v6.536H.713z"/>
            </mask>
            <path d="M.713.912h7.223v6.536H.713z" mask="url(#b)"/>
        </g>
        <path d="M15 10h7v29h-7zM41.155 39L53 10h-7.692l-6.603 19.22h-.138L31.557 10H24l11.708 29z"/>
        <g transform="translate(55)">
            <mask id="d" fill="#fff">
                <path id="c" d="M.004.912h7.041v6.536H.004z"/>
            </mask>
            <path d="M.004.912h7.041v6.536H.004z" mask="url(#d)"/>
        </g>
        <path d="M46.267 65.636c-4.467 0-8.401-3.858-8.401-9.275 0-4.06 3.333-8.868 8.4-8.868 4.8 0 8.4 4.332 8.4 9.072 0 4.4-3.266 9.07-8.4 9.07zm7.932-20.919c-2-2.166-4.467-3.723-8.667-3.723-6.8 0-14.532 5.89-14.532 15.638C31 65.975 38.332 72 45.532 72c4.867 0 7.8-2.369 9.133-4.468h.068v3.52H61V11h-6.8v33.717zM72.85 26.171c0-2.443-.069-5.769 1.207-7.534 1.21-1.965 3.158-3.258 5.91-3.258 5.44 0 6.113 5.566 6.113 9.367V39H93V23.389c0-2.308 0-7.124-2.69-10.318C87.96 10.148 83.594 9 80.505 9c-4.365 0-7.05 2.442-8.192 3.529v-2.515H66V39h6.85V26.171zM110.737 34.026c-4.295 0-8.718-3.456-8.718-9.472 0-5.6 4.287-9.058 8.518-9.058 5.175 0 8.516 4.84 8.516 8.99 0 5.945-4.158 9.54-8.316 9.54zm8.516-23.994v3.594h-.063C118.373 12.52 115.849 9 109.856 9 102.491 9 95 15.294 95 24.485c0 9.955 7.837 16.039 14.92 16.039 5.929 0 8.59-3.387 9.542-4.7l.137.069c-.41 6.428-4.976 9.61-8.927 9.61-1.09 0-4.503 0-7.226-3.251h-7.973C97.996 48.82 104.126 52 110.128 52 115.648 52 126 48.337 126 34.164V10.032h-6.747z"/>
    </g>
</svg>
